# xmcd CD database file
#
# Track frame offsets:
#	150
#	14219
#	26072
#	40834
#	55167
#	69212
#	81585
#	93134
#	108249
#	123068
#	135565
#	148600
#	162745
#	178034
#	191695
#	208449
#	223338
#	237833
#	252102
#	267946
#
# Disc length: 3698 seconds
#
# Revision: 0
# Processed by: cddbd v1.5.2PL0 Copyright (c) Steve Scherf et al.
# Submitted via: CDex 1.51
#
DISCID=2c0e7014
DTITLE=Divers - Midnight Jazz
DYEAR=2005
DGENRE=Jazz
TTITLE0=01 - ART PEPPER - Everything Happens To Me
TTITLE1=02 - BILLIE HOLIDAY - My Man
TTITLE2=03 - CHET BAKER - Moon Love
TTITLE3=04 - WOODY HERMAN - Early Autumn
TTITLE4=05 - NAT KING COLE - 'Tis Autumn
TTITLE5=06 - ERROLL GARNER - Laura
TTITLE6=07 - LOUIS ARMSTRONG - I Wonder
TTITLE7=08 - STAN GETZ - Stars Fell On Alabama
TTITLE8=09 - DUKE ELLINGTON - I Got It Bad (And That Ain't Good)
TTITLE9=10 - CHARLIE PARKER - Summertime
TTITLE10=11 - NAT KING COLE - (I Love You) For Semtimental Reason
TTITLE11=12 - LESTER YOUNG - These Foolish Things
TTITLE12=13 - SARAH VAUGHAN - Come Rain Or Come Shine
TTITLE13=14 - CHARLIE PARKER - Parker's Mood
TTITLE14=15 - FRANK SINATRA - Night And Day
TTITLE15=16 - MILES DAVIS - Moon Dreams
TTITLE16=17 - ELLA FITZGERALD - But Not For Me
TTITLE17=18 - DON BYAS - Stormy Weather
TTITLE18=19 - BILLIE HOLIDAY - Solitude
TTITLE19=20 - CHET BAKER - I Fall In Love Too Easily
EXTD=YEAR: 2005
EXTT0=
EXTT1=
EXTT2=
EXTT3=
EXTT4=
EXTT5=
EXTT6=
EXTT7=
EXTT8=
EXTT9=
EXTT10=
EXTT11=
EXTT12=
EXTT13=
EXTT14=
EXTT15=
EXTT16=
EXTT17=
EXTT18=
EXTT19=
PLAYORDER=
